<svg xmlns="http://www.w3.org/2000/svg" viewBox="1809 221 746 746">
<path transform="translate(0,0)" fill="rgb(74,52,40)" d="M 2179.15 398.451 C 2222.52 398.259 2259.69 410.212 2296.02 433.351 C 2299.23 431.087 2302.49 428.89 2305.79 426.762 C 2340.03 404.747 2381.28 395.482 2421.41 404.345 C 2452.94 411.149 2480.4 430.378 2497.57 457.684 C 2518.54 491.202 2520.66 535.127 2503.69 570.711 C 2498.01 582.618 2487.8 596.388 2484.19 608.458 C 2479.45 625.293 2480.74 641.837 2476.49 659.145 C 2462.9 714.48 2413.58 758.02 2355.64 758.339 C 2343.08 758.408 2333.7 756.407 2321.68 753.449 C 2316.67 757.19 2311.59 760.831 2306.44 764.371 C 2308.49 766.053 2310.52 767.753 2312.54 769.47 C 2359.48 809.459 2393.23 870.393 2398.68 932.194 C 2399.83 947.114 2398.31 967.594 2387.09 979.042 C 2367.5 999.03 2338.93 998.028 2318.94 980.419 C 2321.57 996.932 2322.49 1010.26 2322.7 1026.88 C 2394.24 1047.52 2405.22 979.25 2423.05 977.418 C 2430.17 980.004 2430.38 987.878 2428.64 994.206 C 2414.15 1047.1 2370.92 1069.64 2319.79 1059.08 C 2317 1076.19 2312.46 1089.73 2306.29 1105.78 C 2328.74 1111.86 2343.38 1132.09 2329.62 1153.44 C 2311.59 1181.41 2257.53 1177.43 2229.82 1170.14 C 2223.31 1167.54 2218.47 1165.39 2213.45 1160.39 C 2208.51 1155.47 2205.06 1149.27 2203.48 1142.49 C 2201.19 1132.88 2202.12 1112.07 2202.2 1101.43 L 2202.16 1054.17 C 2189.71 1055.31 2178.24 1055.52 2165.8 1054.14 C 2165.68 1073.19 2168.73 1138.59 2161.42 1152.32 C 2156.49 1161.55 2146.8 1167.65 2137.07 1170.74 C 2114.06 1178.06 2075.27 1178.08 2053.73 1166.91 C 2045.15 1162.46 2038.12 1155.5 2035.27 1146.09 C 2032.98 1138.49 2034.12 1129.57 2037.86 1122.62 C 2043.03 1113.01 2052.25 1109.04 2062.22 1106.05 C 2043.6 1061.04 2044.13 1026.71 2049.75 979.825 C 2037.94 989.755 2027.27 995.094 2011.66 993.539 C 1974.97 989.884 1966.2 959.006 1970.04 927.487 C 1977.51 866.182 2012.64 803.634 2060.64 765.343 C 2053.99 760.926 2049.2 757.151 2043.03 752.21 C 2039.27 753.529 2035.43 754.614 2031.53 755.46 C 2000.25 762.502 1970.41 756.683 1943.48 739.506 C 1910.97 718.531 1889.31 684.351 1884.2 646.003 C 1882.79 635.718 1882.96 615.714 1878.85 606.997 C 1868.38 584.778 1856.28 571.679 1850.66 546.133 C 1843.71 514.938 1849.55 482.259 1866.87 455.403 C 1884.31 428.814 1911.66 410.305 1942.83 403.998 C 1989.05 394.248 2029.06 408.57 2067.04 433.445 C 2103.6 409.55 2136.03 400.28 2179.15 398.451 z"/>
<path transform="translate(0,0)" fill="rgb(175,192,212)" d="M 2175.38 407.461 C 2185.33 407.308 2195.28 407.782 2205.16 408.879 C 2256.87 414.979 2305.34 443.46 2337.38 484.244 C 2369.97 525.018 2384.84 577.158 2378.67 628.989 C 2372.41 679.63 2347.11 721.27 2307.25 752.398 C 2305.94 745.535 2303.68 728.19 2294.9 727.11 C 2287.34 726.179 2275.34 726.657 2268.83 731.171 C 2261.09 736.532 2262.63 745.59 2261.16 753.787 L 2259.69 754.649 C 2252.18 754.199 2245.61 750.448 2240.84 744.874 C 2224.4 725.678 2235.04 700.093 2236.68 678.1 C 2236.93 674.826 2236.83 671.84 2234.62 669.431 C 2231.55 669.356 2232.58 669.312 2229.54 671.347 C 2226.33 678.784 2224.47 699.574 2223.25 708.534 C 2220.31 729.947 2228.9 757.778 2252.78 762.703 C 2273.55 766.987 2271.28 753.707 2271.47 738.965 C 2279.29 737.161 2285.74 736.193 2293.62 735.049 C 2296.4 743.038 2299.89 752.417 2297.96 761.04 C 2292.43 785.722 2262.89 789.647 2241.87 788.275 C 2235.36 787.85 2228.83 786.595 2222.33 785.209 C 2178.21 771.984 2152.61 739.785 2145.84 694.697 C 2144.83 688.013 2145.45 670.864 2139.51 669.335 C 2138.06 669.964 2136.08 670.467 2135.67 672.11 C 2133.14 682.101 2139.16 709.229 2141.85 717.352 C 2154.17 754.593 2172.62 772.397 2205.98 789.599 C 2201.85 790.008 2197.72 790.342 2193.58 790.601 C 2140.51 794.029 2087.82 779.585 2047.53 743.954 C 2010.35 711.603 1987.7 665.698 1984.63 616.512 C 1981.97 563.719 2000.43 512.036 2035.94 472.881 C 2073.06 431.176 2120.21 410.56 2175.38 407.461 z"/>
<path transform="translate(0,0)" fill="rgb(74,52,40)" d="M 2073.55 585.873 C 2094.69 581.019 2115.78 594.189 2120.7 615.322 C 2125.62 636.454 2112.52 657.584 2091.4 662.57 C 2070.19 667.578 2048.95 654.404 2044.01 633.178 C 2039.06 611.951 2052.31 590.748 2073.55 585.873 z"/>
<path transform="translate(0,0)" fill="rgb(251,243,230)" d="M 2090.96 598.299 C 2097.31 597.689 2102.96 602.289 2103.66 608.625 C 2104.36 614.96 2099.84 620.684 2093.52 621.474 C 2089.35 621.995 2085.22 620.229 2082.71 616.852 C 2080.21 613.475 2079.71 609.01 2081.42 605.168 C 2083.13 601.325 2086.77 598.7 2090.96 598.299 z"/>
<path transform="translate(0,0)" fill="rgb(74,52,40)" d="M 2280.21 585.757 C 2301.56 582.037 2321.88 596.367 2325.54 617.731 C 2329.2 639.096 2314.81 659.371 2293.44 662.971 C 2272.15 666.557 2251.97 652.239 2248.32 630.96 C 2244.68 609.68 2258.94 589.463 2280.21 585.757 z"/>
<path transform="translate(0,0)" fill="rgb(251,243,230)" d="M 2294.02 598.574 C 2298.15 597.605 2302.48 598.934 2305.35 602.051 C 2308.22 605.169 2309.18 609.591 2307.88 613.622 C 2306.57 617.653 2303.19 620.667 2299.04 621.508 C 2292.75 622.78 2286.61 618.774 2285.24 612.51 C 2283.87 606.246 2287.78 600.041 2294.02 598.574 z"/>
<path transform="translate(0,0)" fill="rgb(242,169,160)" d="M 2288.04 666.268 C 2300.58 665.831 2335.17 667.882 2325.21 692.022 C 2322.44 698.731 2310.2 702.368 2303.1 703.917 C 2257.29 707.102 2248.33 671.92 2288.04 666.268 z"/>
<path transform="translate(0,0)" fill="rgb(242,169,160)" d="M 2067.51 666.325 C 2109.97 664.47 2120.4 697.894 2078.58 704.496 C 2038.45 706.781 2023.74 673.107 2067.51 666.325 z"/>
<path transform="translate(0,0)" fill="rgb(175,192,212)" d="M 2068.56 770.619 C 2111.99 793.932 2142.94 801.961 2193.47 799.771 C 2202.91 799.777 2214.53 796.285 2223.71 796.343 C 2254.91 796.54 2281.99 802.61 2303.17 773.833 C 2311.78 780.661 2319.82 788.191 2327.19 796.344 C 2362.92 835.583 2390.17 891.52 2389.86 945.496 C 2389.72 970.032 2371.87 986.669 2347.28 984.413 C 2334.92 983.28 2328.74 977.574 2321.14 968.452 C 2332.6 935.952 2335.04 904.528 2326.35 871.06 C 2324.63 864.434 2324.61 852.633 2316.78 850.776 L 2315.33 852.058 C 2312.1 859.671 2315.86 865.882 2317.64 873.524 C 2319.69 882.301 2321.1 891.217 2321.85 900.2 C 2325.23 941.932 2313.7 973.398 2286.98 1004.76 C 2285.44 1006.31 2283.88 1007.84 2282.3 1009.36 C 2228.6 1060.75 2129.93 1057.54 2079.64 1003.34 C 2050.25 971.667 2040.29 929.488 2047.49 887.384 C 2049.33 876.619 2052.64 866.28 2053.7 855.499 C 2053.86 853.753 2052.15 852.228 2050.9 851.046 L 2048.89 851.142 C 2044.53 855.148 2042.99 861.922 2041.72 867.551 C 2034.06 901.293 2033.45 936.597 2047.07 968.97 C 2045.45 970.822 2043.92 972.291 2042.23 974.035 C 2028.28 988.395 2001.62 987.715 1988.1 973.083 C 1978.75 962.781 1977.51 946.574 1978.64 933.468 C 1982.71 885.831 2004.98 839.975 2035.22 803.464 C 2045.18 791.439 2056.7 780.85 2068.56 770.619 z"/>
<path transform="translate(0,0)" fill="rgb(175,192,212)" d="M 1963.63 410.413 C 1997.53 406.969 2031.39 421.307 2059.3 439.144 C 2052.18 444.397 2045.43 450.125 2039.09 456.29 C 1999.08 495.11 1976.13 548.243 1975.32 603.988 C 1974.8 659.328 1996.57 706.206 2034.96 745.237 C 2026.36 747.33 2021.83 748.038 2013.2 749.078 C 1948.92 750.153 1901.58 704.865 1892.71 641.512 C 1891.39 632.083 1891.72 613.101 1887.88 605.211 C 1874.67 578.037 1860.57 561.965 1857.5 530.053 C 1854.57 501.045 1863.58 472.094 1882.44 449.865 C 1903.87 424.326 1931.2 413.12 1963.63 410.413 z"/>
<path transform="translate(0,0)" fill="rgb(175,192,212)" d="M 2379.53 410.382 C 2404.79 407.821 2433.12 413.647 2454.67 427.154 C 2479.47 442.67 2497.02 467.478 2503.4 496.032 C 2509.27 522.957 2504.95 551.099 2491.29 575.029 C 2474.38 604.266 2473.91 603.127 2471.15 636.62 C 2469.25 657.409 2462.32 677.422 2450.94 694.927 C 2431.77 724.459 2406.52 740.577 2372.56 747.768 C 2355.2 749.954 2346.28 748.971 2329.55 746.235 C 2334.19 741.514 2339.63 735.677 2343.8 730.604 C 2377.64 690.099 2393.58 637.582 2387.95 585.101 C 2381.81 523.437 2351.34 477.676 2304.46 439.284 C 2326.61 422.358 2351.93 413.074 2379.53 410.382 z"/>
<path transform="translate(0,0)" fill="rgb(175,192,212)" d="M 2309.9 989.758 C 2312.63 992.493 2312.41 1000.67 2312.71 1004.7 C 2315.41 1040.51 2309.88 1076.29 2294.55 1108.9 C 2292.8 1112.62 2307.44 1116.52 2309.92 1117.45 C 2329.07 1124.69 2330.05 1142.84 2315.61 1155.38 C 2300.02 1167.81 2269.26 1166.9 2248.76 1164.89 C 2207.7 1158.75 2211.4 1142.82 2211.66 1108.39 C 2211.9 1089.75 2211.88 1071.11 2211.59 1052.48 C 2253.62 1047.85 2287.1 1024.48 2309.9 989.758 z"/>
<path transform="translate(0,0)" fill="rgb(175,192,212)" d="M 2057.4 990.667 C 2060.54 993.45 2068.61 1005.32 2072.87 1009.81 C 2095.2 1033 2124.63 1048.07 2156.5 1052.63 C 2156.3 1070.43 2156.34 1088.23 2156.62 1106.03 C 2156.88 1140.98 2161.05 1157.57 2121.35 1164.76 C 2097.12 1167.49 2037.29 1169.54 2043.66 1130.76 C 2045.55 1119.26 2063.82 1116.39 2071.94 1112.26 C 2075.65 1107.3 2067.89 1096.96 2065.82 1090.71 C 2055.23 1058.81 2053.13 1023.86 2057.4 990.667 z"/>
<path transform="translate(0,0)" fill="rgb(175,192,212)" d="M 2418.62 991.799 C 2420.43 1005.42 2401.99 1028.48 2391.77 1036.64 C 2369.77 1054.22 2347.31 1053.84 2320.88 1050.75 L 2322.27 1036.04 C 2367.29 1049.78 2395.4 1028.38 2418.62 991.799 z"/>
</svg>
