<svg xmlns="http://www.w3.org/2000/svg" viewBox="1354 390 495 803">
<path transform="translate(0,0)" fill="rgb(74,52,40)" d="M 1598.66 402.451 C 1609.99 401.882 1625.56 402.87 1636.73 404.462 C 1693.59 412.357 1745.01 442.443 1779.76 488.143 C 1813.67 532.91 1828 589.508 1819.48 645.02 C 1811.68 699.077 1784.63 746.267 1740.76 778.95 C 1752.94 789.22 1764.04 800.711 1773.87 813.244 C 1803.75 850.744 1836.51 913.156 1832.9 962.589 C 1830.83 990.908 1809.61 1011.3 1780.32 1007.99 C 1779.36 1011.69 1778.34 1015.37 1777.23 1019.02 C 1763.35 1063.69 1734.73 1089.33 1695.05 1110.31 C 1707.62 1120.47 1729.3 1131.6 1734.33 1147.02 C 1738.13 1158.67 1722.06 1169.23 1711.8 1169.63 C 1686.59 1170.6 1660.7 1170.47 1635.47 1169.49 C 1614.25 1168.57 1610.69 1148.52 1608.84 1131.8 L 1608.66 1130.02 L 1607.01 1129.05 C 1593.34 1129.08 1601.19 1142.56 1596.54 1152.19 C 1588.68 1169.85 1570.12 1172.29 1550.66 1170.02 C 1531.5 1167.79 1470.78 1181.01 1475.41 1146.04 C 1476.95 1134.4 1504.46 1117.77 1514.63 1110.33 C 1468.07 1085.78 1442.16 1060.83 1428.51 1007.74 C 1424.67 1008.07 1420.82 1008.2 1416.97 1008.12 C 1407.03 1007.86 1397.64 1003.51 1391.02 996.094 C 1365.94 968.435 1376.91 925.075 1388.57 893.716 C 1405.21 848.935 1431.69 810.046 1467.17 778.189 C 1462.94 774.651 1458.78 771.033 1454.69 767.336 C 1414.18 730.506 1390.2 678.925 1388.16 624.217 C 1385.57 567.986 1405.57 513.053 1443.69 471.64 C 1485.19 426.642 1538 404.928 1598.66 402.451 z"/>
<path transform="translate(0,0)" fill="rgb(94,143,138)" d="M 1592.86 411.431 C 1648.54 408.21 1703.23 427.089 1745.07 463.968 C 1784.61 498.49 1808.83 547.302 1812.4 599.674 C 1816.01 653.93 1797.3 711.142 1759.59 750.64 C 1749.46 761.255 1736.75 769.169 1726.6 779.348 C 1724.35 783.398 1732.69 797.461 1734.39 800.871 C 1772.96 878.303 1804.14 991.288 1741.35 1064.74 C 1710.07 1101.31 1662.8 1116.52 1616.25 1119.53 C 1582.56 1121.83 1549.25 1115.63 1518.62 1101.85 C 1404.45 1050.48 1423.32 919.822 1463.51 825.304 C 1470.08 809.855 1477.97 795.465 1485.13 780.362 C 1479.58 775.079 1469.49 768.121 1462.89 762.283 C 1423.68 727.643 1400.06 678.683 1397.35 626.433 C 1394.13 572.816 1412.51 520.144 1448.39 480.17 C 1485.76 438.119 1536.9 414.767 1592.86 411.431 z"/>
<path transform="translate(0,0)" fill="rgb(74,52,40)" d="M 1509.82 499.374 C 1547.49 496.346 1583.89 522.218 1598.42 556.058 C 1600.5 560.906 1602.29 566.195 1604.02 571.191 C 1612.88 546.639 1624.23 526.172 1647.4 512.094 C 1667.77 499.954 1692.1 496.312 1715.14 501.955 C 1740.8 508.266 1763.96 527.2 1777.45 549.595 C 1796.65 581.502 1800.56 624.629 1791.45 660.498 C 1782.49 695.75 1762.54 729.502 1733.8 752.149 C 1725.26 758.881 1715.02 764.721 1705.64 770.347 C 1690.48 796.344 1817.73 935.67 1720.79 1046.28 C 1661.5 1113.39 1543.36 1111.01 1485.99 1045.55 C 1420.99 971.363 1461.77 871.143 1499.36 795.64 C 1503.15 788.03 1504.29 778.751 1504.75 770.322 C 1494.23 765.16 1485.35 759.94 1476.13 752.574 C 1441.3 724.995 1419.05 684.558 1414.38 640.38 C 1407.48 575.038 1437.98 506.847 1509.82 499.374 z"/>
<path transform="translate(0,0)" fill="rgb(251,243,230)" d="M 1608.58 628.268 C 1607.83 584.122 1613.7 539.506 1657.55 516.805 C 1676.56 507.052 1698.73 505.462 1718.94 512.403 C 1782.19 533.426 1800.04 614.796 1778.82 671.951 C 1762.33 716.359 1738.08 743.763 1695.74 764.767 C 1692.49 792.296 1709.27 817.236 1720.98 842.969 C 1736.03 876.684 1745.13 902.855 1747.84 940.03 C 1757.55 1073.45 1594.69 1130.59 1502.74 1049.55 C 1437.54 991.015 1459.52 900.228 1492.98 831.609 C 1505 806.954 1514.07 791.897 1512.76 764.219 C 1501.42 759.002 1492.25 753.645 1482.42 746.033 C 1449.86 720.496 1428.73 683.113 1423.65 642.05 C 1416.34 582.791 1442.57 516.085 1508.54 508.356 C 1509.62 508.254 1510.69 508.19 1511.77 508.165 C 1545.28 507.149 1574.16 527.268 1588.71 556.694 C 1600.43 580.384 1599.23 603.314 1599.61 628.795 C 1589.81 633.147 1543.52 655.504 1539.87 662.264 C 1538.95 663.977 1538.89 665.962 1539.57 667.747 C 1542.7 675.882 1592.64 696.585 1602.97 701.057 C 1613.11 697.168 1663.81 675.447 1667.59 668.862 C 1668.56 667.154 1668.78 665.528 1668.24 663.632 C 1665.95 655.53 1618.24 633.58 1608.58 628.268 z"/>
<path transform="translate(0,0)" fill="rgb(74,52,40)" d="M 1501.91 585.727 C 1523.24 582.483 1543.2 597.034 1546.65 618.336 C 1550.09 639.638 1535.72 659.736 1514.46 663.376 C 1492.9 667.065 1472.48 652.469 1468.99 630.885 C 1465.51 609.3 1480.29 589.014 1501.91 585.727 z"/>
<path transform="translate(0,0)" fill="rgb(251,243,230)" d="M 1513.71 599.326 C 1517.73 597.967 1522.18 598.9 1525.31 601.764 C 1528.45 604.628 1529.78 608.969 1528.79 613.098 C 1527.79 617.226 1524.64 620.489 1520.54 621.616 C 1514.46 623.292 1508.15 619.823 1506.3 613.79 C 1504.45 607.756 1507.73 601.347 1513.71 599.326 z"/>
<path transform="translate(0,0)" fill="rgb(74,52,40)" d="M 1693.2 585.791 C 1714.44 582.797 1734.15 597.389 1737.49 618.573 C 1740.82 639.756 1726.55 659.699 1705.42 663.375 C 1691.45 665.806 1677.25 660.516 1668.28 649.534 C 1659.3 638.552 1656.95 623.585 1662.11 610.377 C 1667.28 597.169 1679.16 587.771 1693.2 585.791 z"/>
<path transform="translate(0,0)" fill="rgb(251,243,230)" d="M 1704.13 599.466 C 1710.13 597.11 1716.9 600.086 1719.23 606.101 C 1721.55 612.115 1718.54 618.874 1712.52 621.168 C 1706.53 623.444 1699.84 620.46 1697.53 614.49 C 1695.22 608.519 1698.17 601.806 1704.13 599.466 z"/>
<path transform="translate(0,0)" fill="rgb(242,169,160)" d="M 1696.32 666.65 C 1701.71 665.089 1705.99 665.714 1711.5 666.847 C 1722.19 668.384 1741.21 675.753 1735.87 690.494 C 1730.63 704.984 1705.87 706.914 1692.99 704.167 C 1682.33 701.896 1667.55 693.153 1673.62 679.719 C 1677.45 671.793 1688.3 668.998 1696.32 666.65 z"/>
<path transform="translate(0,0)" fill="rgb(242,169,160)" d="M 1492.91 668.218 C 1534.77 665.301 1547.5 698.823 1507.15 706.391 C 1465.02 710.635 1449.44 676.663 1492.91 668.218 z"/>
<path transform="translate(0,0)" fill="rgb(217,164,65)" d="M 1602.54 636.875 C 1608.04 637.284 1651.07 661.081 1659.53 665.302 C 1641.35 673.382 1623.29 681.704 1605.33 690.265 L 1603.98 690.756 C 1597.54 689.87 1556.35 669.172 1548.44 665.339 C 1566.03 656.874 1585.35 646.257 1602.54 636.875 z"/>
<path transform="translate(0,0)" fill="rgb(94,143,138)" d="M 1473.44 784.849 L 1468.28 793.701 C 1443.85 843.839 1425.64 897.852 1423.26 954.121 C 1422.76 966.026 1424.68 985.006 1425.44 997.509 L 1424.53 998.509 C 1394.33 1004.04 1382.99 968.597 1385.51 944.832 C 1390.75 895.329 1426.6 825.701 1464.2 793.673 C 1467.3 790.569 1470.11 787.721 1473.44 784.849 z"/>
<path transform="translate(0,0)" fill="rgb(94,143,138)" d="M 1743.89 798.931 C 1742.15 796.132 1741.73 795.365 1740.63 792.268 C 1742.7 792.139 1743.73 793.857 1745.88 795.733 C 1780.58 829.344 1807.14 876.976 1819.8 923.394 C 1829.1 957.467 1826.68 998.938 1782.42 999.502 C 1793.56 932.766 1774.08 858.341 1743.89 798.931 z"/>
<path transform="translate(0,0)" fill="rgb(217,164,65)" d="M 1683.26 1114.88 C 1688.1 1115.16 1710.23 1133.89 1716.06 1137.47 C 1720.2 1140.01 1724.89 1144.93 1725.64 1150.33 C 1721.42 1165.55 1674.74 1160.86 1661.92 1160.79 C 1652.02 1160.93 1642.12 1160.75 1632.23 1160.26 C 1618.71 1151.13 1619.2 1143.43 1617.89 1128.71 C 1641.76 1126.86 1661.05 1123.84 1683.26 1114.88 z"/>
<path transform="translate(0,0)" fill="rgb(217,164,65)" d="M 1523.49 1114.76 C 1526.38 1115.11 1531.54 1116.82 1534.4 1117.8 C 1552.98 1124.13 1571.28 1126.71 1590.71 1129.11 C 1590.2 1144.08 1589.42 1151.9 1576.24 1160.66 L 1552.5 1160.73 L 1493.7 1160.6 C 1474.05 1147.38 1491.8 1138.88 1504.19 1129.38 C 1510.6 1124.48 1517.12 1119.75 1523.49 1114.76 z"/>
</svg>
